<?xml version="1.0" encoding="UTF-8" standalone="no"?>
<!DOCTYPE svg PUBLIC "-//W3C//DTD SVG 1.1//EN"
 "http://www.w3.org/Graphics/SVG/1.1/DTD/svg11.dtd">
<!-- Generated by graphviz version 2.43.0 (0)
 -->
<!-- Title: galois&#45;lib/src/details/gf128.c Pages: 1 -->
<svg width="328pt" height="151pt"
 viewBox="0.00 0.00 327.50 151.00" xmlns="http://www.w3.org/2000/svg" xmlns:xlink="http://www.w3.org/1999/xlink">
<g id="graph0" class="graph" transform="scale(1 1) rotate(0) translate(4 147)">
<title>galois&#45;lib/src/details/gf128.c</title>
<!-- Node1 -->
<g id="node1" class="node">
<title>Node1</title>
<g id="a_node1"><a xlink:title="Finite field of size 2 ^ 128 multiplication.">
<polygon fill="#bfbfbf" stroke="black" points="94,-112.5 94,-142.5 209,-142.5 209,-112.5 94,-112.5"/>
<text text-anchor="start" x="102" y="-130.5" font-family="Helvetica,sans-Serif" font-size="10.00">galois&#45;lib/src/details</text>
<text text-anchor="middle" x="151.5" y="-119.5" font-family="Helvetica,sans-Serif" font-size="10.00">/gf128.c</text>
</a>
</g>
</g>
<!-- Node2 -->
<g id="node2" class="node">
<title>Node2</title>
<g id="a_node2"><a xlink:href="gf128_8h.html" target="_top" xlink:title="Finite field of size 2 ^ 128 multiplication.">
<polygon fill="none" stroke="black" points="0,-56.5 0,-75.5 89,-75.5 89,-56.5 0,-56.5"/>
<text text-anchor="middle" x="44.5" y="-63.5" font-family="Helvetica,sans-Serif" font-size="10.00">details/gf128.h</text>
</a>
</g>
</g>
<!-- Node1&#45;&gt;Node2 -->
<g id="edge1" class="edge">
<title>Node1&#45;&gt;Node2</title>
<path fill="none" stroke="midnightblue" d="M126.14,-112.4C108.83,-102.77 86.02,-90.09 68.92,-80.58"/>
<polygon fill="midnightblue" stroke="midnightblue" points="70.51,-77.46 60.07,-75.66 67.11,-83.58 70.51,-77.46"/>
</g>
<!-- Node3 -->
<g id="node3" class="node">
<title>Node3</title>
<g id="a_node3"><a xlink:title=" ">
<polygon fill="none" stroke="#bfbfbf" points="42,-0.5 42,-19.5 119,-19.5 119,-0.5 42,-0.5"/>
<text text-anchor="middle" x="80.5" y="-7.5" font-family="Helvetica,sans-Serif" font-size="10.00">emmintrin.h</text>
</a>
</g>
</g>
<!-- Node1&#45;&gt;Node3 -->
<g id="edge4" class="edge">
<title>Node1&#45;&gt;Node3</title>
<path fill="none" stroke="midnightblue" d="M142.79,-112.34C129.77,-91.15 105.24,-51.24 91.16,-28.34"/>
<polygon fill="midnightblue" stroke="midnightblue" points="94.05,-26.36 85.83,-19.67 88.08,-30.02 94.05,-26.36"/>
</g>
<!-- Node4 -->
<g id="node4" class="node">
<title>Node4</title>
<g id="a_node4"><a xlink:title=" ">
<polygon fill="none" stroke="#bfbfbf" points="146,-56.5 146,-75.5 225,-75.5 225,-56.5 146,-56.5"/>
<text text-anchor="middle" x="185.5" y="-63.5" font-family="Helvetica,sans-Serif" font-size="10.00">wmmintrin.h</text>
</a>
</g>
</g>
<!-- Node1&#45;&gt;Node4 -->
<g id="edge3" class="edge">
<title>Node1&#45;&gt;Node4</title>
<path fill="none" stroke="midnightblue" d="M159.56,-112.4C164.35,-104.02 170.46,-93.33 175.54,-84.42"/>
<polygon fill="midnightblue" stroke="midnightblue" points="178.63,-86.08 180.55,-75.66 172.55,-82.6 178.63,-86.08"/>
</g>
<!-- Node5 -->
<g id="node5" class="node">
<title>Node5</title>
<g id="a_node5"><a xlink:title=" ">
<polygon fill="none" stroke="#bfbfbf" points="243.5,-56.5 243.5,-75.5 319.5,-75.5 319.5,-56.5 243.5,-56.5"/>
<text text-anchor="middle" x="281.5" y="-63.5" font-family="Helvetica,sans-Serif" font-size="10.00">smmintrin.h</text>
</a>
</g>
</g>
<!-- Node1&#45;&gt;Node5 -->
<g id="edge5" class="edge">
<title>Node1&#45;&gt;Node5</title>
<path fill="none" stroke="midnightblue" d="M182.31,-112.4C203.83,-102.55 232.34,-89.5 253.27,-79.92"/>
<polygon fill="midnightblue" stroke="midnightblue" points="254.95,-83 262.58,-75.66 252.03,-76.64 254.95,-83"/>
</g>
<!-- Node2&#45;&gt;Node3 -->
<g id="edge2" class="edge">
<title>Node2&#45;&gt;Node3</title>
<path fill="none" stroke="midnightblue" d="M50.44,-56.08C55.48,-48.53 62.84,-37.49 69.01,-28.23"/>
<polygon fill="midnightblue" stroke="midnightblue" points="72.03,-30.01 74.67,-19.75 66.21,-26.13 72.03,-30.01"/>
</g>
</g>
</svg>
