<?xml version="1.0" encoding="UTF-8" standalone="no"?>
<!DOCTYPE svg PUBLIC "-//W3C//DTD SVG 1.1//EN"
 "http://www.w3.org/Graphics/SVG/1.1/DTD/svg11.dtd">
<!-- Generated by graphviz version 2.43.0 (0)
 -->
<!-- Title: galois&#45;lib/include/details/gf128.h Pages: 1 -->
<svg width="242pt" height="106pt"
 viewBox="0.00 0.00 241.50 106.00" xmlns="http://www.w3.org/2000/svg" xmlns:xlink="http://www.w3.org/1999/xlink">
<g id="graph0" class="graph" transform="scale(1 1) rotate(0) translate(4 102)">
<title>galois&#45;lib/include/details/gf128.h</title>
<!-- Node1 -->
<g id="node1" class="node">
<title>Node1</title>
<g id="a_node1"><a xlink:title="Finite field of size 2 ^ 128 multiplication.">
<polygon fill="#bfbfbf" stroke="black" points="63,-67.5 63,-97.5 163,-97.5 163,-67.5 63,-67.5"/>
<text text-anchor="start" x="71" y="-85.5" font-family="Helvetica,sans-Serif" font-size="10.00">galois&#45;lib/include</text>
<text text-anchor="middle" x="113" y="-74.5" font-family="Helvetica,sans-Serif" font-size="10.00">/details/gf128.h</text>
</a>
</g>
</g>
<!-- Node2 -->
<g id="node2" class="node">
<title>Node2</title>
<g id="a_node2"><a xlink:href="galoislib_8h.html" target="_top" xlink:title="Main library header.">
<polygon fill="none" stroke="black" points="0,-0.5 0,-30.5 100,-30.5 100,-0.5 0,-0.5"/>
<text text-anchor="start" x="8" y="-18.5" font-family="Helvetica,sans-Serif" font-size="10.00">galois&#45;lib/include</text>
<text text-anchor="middle" x="50" y="-7.5" font-family="Helvetica,sans-Serif" font-size="10.00">/galoislib.h</text>
</a>
</g>
</g>
<!-- Node1&#45;&gt;Node2 -->
<g id="edge1" class="edge">
<title>Node1&#45;&gt;Node2</title>
<path fill="none" stroke="midnightblue" d="M92.19,-60.02C82.8,-50.34 71.98,-39.17 63.64,-30.58"/>
<polygon fill="midnightblue" stroke="midnightblue" points="89.86,-62.65 99.33,-67.4 94.88,-57.78 89.86,-62.65"/>
</g>
<!-- Node3 -->
<g id="node3" class="node">
<title>Node3</title>
<g id="a_node3"><a xlink:href="gf128_8c.html" target="_top" xlink:title="Finite field of size 2 ^ 128 multiplication.">
<polygon fill="none" stroke="black" points="118.5,-0.5 118.5,-30.5 233.5,-30.5 233.5,-0.5 118.5,-0.5"/>
<text text-anchor="start" x="126.5" y="-18.5" font-family="Helvetica,sans-Serif" font-size="10.00">galois&#45;lib/src/details</text>
<text text-anchor="middle" x="176" y="-7.5" font-family="Helvetica,sans-Serif" font-size="10.00">/gf128.c</text>
</a>
</g>
</g>
<!-- Node1&#45;&gt;Node3 -->
<g id="edge2" class="edge">
<title>Node1&#45;&gt;Node3</title>
<path fill="none" stroke="midnightblue" d="M133.81,-60.02C143.2,-50.34 154.02,-39.17 162.36,-30.58"/>
<polygon fill="midnightblue" stroke="midnightblue" points="131.12,-57.78 126.67,-67.4 136.14,-62.65 131.12,-57.78"/>
</g>
</g>
</svg>
