<?xml version="1.0" encoding="UTF-8" standalone="no"?>
<!DOCTYPE svg PUBLIC "-//W3C//DTD SVG 1.1//EN"
 "http://www.w3.org/Graphics/SVG/1.1/DTD/svg11.dtd">
<!-- Generated by graphviz version 2.43.0 (0)
 -->
<!-- Title: src/details/gf128.c Pages: 1 -->
<svg width="328pt" height="140pt"
 viewBox="0.00 0.00 327.50 140.00" xmlns="http://www.w3.org/2000/svg" xmlns:xlink="http://www.w3.org/1999/xlink">
<g id="graph0" class="graph" transform="scale(1 1) rotate(0) translate(4 136)">
<title>src/details/gf128.c</title>
<!-- Node1 -->
<g id="node1" class="node">
<title>Node1</title>
<g id="a_node1"><a xlink:title="Finite field of size 2 ^ 128 multiplication.">
<polygon fill="#bfbfbf" stroke="black" points="98.5,-112.5 98.5,-131.5 204.5,-131.5 204.5,-112.5 98.5,-112.5"/>
<text text-anchor="middle" x="151.5" y="-119.5" font-family="Helvetica,sans-Serif" font-size="10.00">src/details/gf128.c</text>
</a>
</g>
</g>
<!-- Node2 -->
<g id="node2" class="node">
<title>Node2</title>
<g id="a_node2"><a xlink:href="gf128_8h.html" target="_top" xlink:title="Finite field of size 2 ^ 128 multiplication.">
<polygon fill="none" stroke="black" points="0,-56.5 0,-75.5 89,-75.5 89,-56.5 0,-56.5"/>
<text text-anchor="middle" x="44.5" y="-63.5" font-family="Helvetica,sans-Serif" font-size="10.00">details/gf128.h</text>
</a>
</g>
</g>
<!-- Node1&#45;&gt;Node2 -->
<g id="edge1" class="edge">
<title>Node1&#45;&gt;Node2</title>
<path fill="none" stroke="midnightblue" d="M134.31,-112.32C117.15,-103.66 90.55,-90.24 70.75,-80.25"/>
<polygon fill="midnightblue" stroke="midnightblue" points="72.15,-77.04 61.65,-75.65 69,-83.28 72.15,-77.04"/>
</g>
<!-- Node3 -->
<g id="node3" class="node">
<title>Node3</title>
<g id="a_node3"><a xlink:title=" ">
<polygon fill="none" stroke="#bfbfbf" points="42,-0.5 42,-19.5 119,-19.5 119,-0.5 42,-0.5"/>
<text text-anchor="middle" x="80.5" y="-7.5" font-family="Helvetica,sans-Serif" font-size="10.00">emmintrin.h</text>
</a>
</g>
</g>
<!-- Node1&#45;&gt;Node3 -->
<g id="edge4" class="edge">
<title>Node1&#45;&gt;Node3</title>
<path fill="none" stroke="midnightblue" d="M145.93,-112.37C134.26,-94.3 107.08,-52.18 91.67,-28.31"/>
<polygon fill="midnightblue" stroke="midnightblue" points="94.41,-26.1 86.05,-19.59 88.53,-29.89 94.41,-26.1"/>
</g>
<!-- Node4 -->
<g id="node4" class="node">
<title>Node4</title>
<g id="a_node4"><a xlink:title=" ">
<polygon fill="none" stroke="#bfbfbf" points="146,-56.5 146,-75.5 225,-75.5 225,-56.5 146,-56.5"/>
<text text-anchor="middle" x="185.5" y="-63.5" font-family="Helvetica,sans-Serif" font-size="10.00">wmmintrin.h</text>
</a>
</g>
</g>
<!-- Node1&#45;&gt;Node4 -->
<g id="edge3" class="edge">
<title>Node1&#45;&gt;Node4</title>
<path fill="none" stroke="midnightblue" d="M157.11,-112.08C161.87,-104.53 168.82,-93.49 174.65,-84.23"/>
<polygon fill="midnightblue" stroke="midnightblue" points="177.62,-86.08 179.99,-75.75 171.7,-82.35 177.62,-86.08"/>
</g>
<!-- Node5 -->
<g id="node5" class="node">
<title>Node5</title>
<g id="a_node5"><a xlink:title=" ">
<polygon fill="none" stroke="#bfbfbf" points="243.5,-56.5 243.5,-75.5 319.5,-75.5 319.5,-56.5 243.5,-56.5"/>
<text text-anchor="middle" x="281.5" y="-63.5" font-family="Helvetica,sans-Serif" font-size="10.00">smmintrin.h</text>
</a>
</g>
</g>
<!-- Node1&#45;&gt;Node5 -->
<g id="edge5" class="edge">
<title>Node1&#45;&gt;Node5</title>
<path fill="none" stroke="midnightblue" d="M172.1,-112.44C193.49,-103.56 227.18,-89.56 251.52,-79.45"/>
<polygon fill="midnightblue" stroke="midnightblue" points="253.11,-82.58 261,-75.52 250.42,-76.12 253.11,-82.58"/>
</g>
<!-- Node2&#45;&gt;Node3 -->
<g id="edge2" class="edge">
<title>Node2&#45;&gt;Node3</title>
<path fill="none" stroke="midnightblue" d="M50.44,-56.08C55.48,-48.53 62.84,-37.49 69.01,-28.23"/>
<polygon fill="midnightblue" stroke="midnightblue" points="72.03,-30.01 74.67,-19.75 66.21,-26.13 72.03,-30.01"/>
</g>
</g>
</svg>
